<?xml version="1.0" encoding="UTF-8" standalone="no"?>
<svg xmlns="http://www.w3.org/2000/svg" viewBox="0 0 1000 1000">
  <path d="M395.8 258.7c-8.6 3.6-27.7 21.8-31.8 30.3-1.9 3.8-4.5 12.2-5.8 18.5-2.3 11.2-2.3 12.4-2.3 103.5 0 91.1 0 92.3 2.3 103.5 4.4 21.7 17.8 39.4 37.1 49 11.2 5.6 19.9 7 39.7 7 19.8 0 28.5-1.4 39.7-7 19.3-9.6 32.7-27.3 37.1-49 2.3-11.2 2.3-12.4 2.3-103.5s0-92.3-2.3-103.5c-4.4-21.7-17.8-39.4-37.1-49-10.7-5.3-19.8-7-36.9-7-12.9 0-18.8.5-25.8 2.2-4.9 1.2-11.9 3.6-15.5 5.3l-6.5 3.1 5.8-1.9c3.2-1.1 7.7-2 10-2 2.3 0 4.2-.2 4.2-.5 0-1.2-8.7-.7-13.2.9m227.7-2.2c-19.3 9.6-32.7 27.3-37.1 49-2.3 11.2-2.3 12.4-2.3 103.5s0 92.3 2.3 103.5c4.4 21.7 17.8 39.4 37.1 49 11.2 5.6 19.9 7 39.7 7 19.8 0 28.5-1.4 39.7-7 19.3-9.6 32.7-27.3 37.1-49 2.3-11.2 2.3-12.4 2.3-103.5 0-91.1 0-92.3-2.3-103.5-4.4-21.7-17.8-39.4-37.1-49-10.7-5.3-19.8-7-36.9-7s-26.2 1.7-36.9 7m-260.3 36.7c15.1 7.5 22.4 19.1 25.1 39.8 1.4 10.9 1.4 156.1 0 167-2.7 20.7-10 32.3-25.1 39.8l-7.2 3.6v-126.9c0-69.8.3-126.9.7-126.9.3 0 3.2 1.6 6.5 3.6m293.6-2.9c.5.4.9 57.8.9 127.4v126.6l-7.2-3.6c-15.1-7.5-22.4-19.1-25.1-39.8-1.4-10.9-1.4-156.1 0-167 2.7-20.7 10-32.3 25.1-39.8 3.3-1.6 6.3-2.9 6.3-2.9.1 0 .1.4 0 .9"/>
</svg>
